<svg xmlns="http://www.w3.org/2000/svg" xmlns:xlink="http://www.w3.org/1999/xlink" viewBox="0 0 582.48 215.74"><defs><style>.cls-1{fill:#0088de;}.cls-2{fill:url(#Degradado_sin_nombre_122);}</style><linearGradient id="Degradado_sin_nombre_122" x1="157.69" y1="52.11" x2="316.95" y2="163.62" gradientUnits="userSpaceOnUse"><stop offset="0" stop-color="#fff" stop-opacity="0"/><stop offset="0.1" stop-color="#c7e5f8" stop-opacity="0.22"/><stop offset="0.21" stop-color="#92ccf1" stop-opacity="0.43"/><stop offset="0.32" stop-color="#65b7eb" stop-opacity="0.6"/><stop offset="0.44" stop-color="#41a6e6" stop-opacity="0.75"/><stop offset="0.56" stop-color="#2499e3" stop-opacity="0.86"/><stop offset="0.68" stop-color="#108fe0" stop-opacity="0.94"/><stop offset="0.82" stop-color="#048adf" stop-opacity="0.98"/><stop offset="0.97" stop-color="#0088de"/></linearGradient></defs><title>Recurso 6</title><g id="Capa_2" data-name="Capa 2"><g id="Capa_3" data-name="Capa 3"><path class="cls-1" d="M431.46,43.15V172.59c0,43.14-43.14,43.14-43.14,43.14H302V129.44h43.14v43.15h43.15V43.15H345.17V86.3H302V0h86.29S431.46,0,431.46,43.15Z"/><path class="cls-1" d="M582.48,194.16a21.57,21.57,0,0,1-21.58,21.57H453V172.58H560.9A21.58,21.58,0,0,1,582.48,194.16Z"/><path class="cls-1" d="M582.47,21.58a21.57,21.57,0,0,1-21.58,21.57H453V0H560.89A21.58,21.58,0,0,1,582.47,21.58Z"/><polygon class="cls-1" points="560.89 86.29 560.89 129.44 524.93 129.44 453.04 129.43 453.04 86.3 524.93 86.3 560.89 86.29"/><polygon class="cls-2" points="280.46 215.73 237.32 0 194.17 0 237.32 215.74 280.46 215.73"/><polygon class="cls-1" points="194.17 0 151.02 215.74 194.18 215.74 237.32 0 194.17 0"/><path class="cls-1" d="M129.45,129.44v43.14c0,43.15-43.15,43.15-43.15,43.15H21.58a21.58,21.58,0,1,1,0-43.15H86.3V129.44H43.15C0,129.44,0,86.29,0,86.29V43.15C0,0,43.15,0,43.15,0h86.29V43.15H43.15V86.29H86.3S129.45,86.29,129.45,129.44Z"/></g></g></svg>